PathFileType	4	(X/Y/Z)	Patient4_TMGait_0pt6_01_right_16.trc.trc
DataRate	CameraRate	NumFrames	NumMarkers	Units	OrigDataRate	OrigDataStartFrame	OrigNumFrames
80.459770114943	80.459770114943	4	33	mm	80.459770114943	106	       141
Frame#	Time	Sacral			L.Shoulder			Chest			R.Shoulder			Neck			R.ASIS			L.ASIS			R.Thigh.Superior			R.Thigh.Lateral			R.Thigh.Inferior			R.Patella			L.Thigh.Superior			L.Thigh.Lateral			L.Thigh.Inferior			L.Patella			L.Shank.Superior			L.Shank.Lateral			L.Shank.Inferior			R.Shank.Superior			R.Shank.Lateral			R.Shank.Inferior			R.Heel			R.Midfoot.Superior			R.Midfoot.Lateral			R.Toe			L.Heel			L.Midfoot.Lateral			L.Midfoot.Superior			L.Toe			L.Elbow			L.Wrist			R.Elbow			R.Wrist			
		X1	Y1	Z1	X2	Y2	Z2	X3	Y3	Z3	X4	Y4	Z4	X5	Y5	Z5	X6	Y6	Z6	X7	Y7	Z7	X8	Y8	Z8	X9	Y9	Z9	X10	Y10	Z10	X11	Y11	Z11	X12	Y12	Z12	X13	Y13	Z13	X14	Y14	Z14	X15	Y15	Z15	X16	Y16	Z16	X17	Y17	Z17	X18	Y18	Z18	X19	Y19	Z19	X20	Y20	Z20	X21	Y21	Z21	X22	Y22	Z22	X23	Y23	Z23	X24	Y24	Z24	X25	Y25	Z25	X26	Y26	Z26	X27	Y27	Z27	X28	Y28	Z28	X29	Y29	Z29	X30	Y30	Z30	X31	Y31	Z31	X32	Y32	Z32	X33	Y33	Z33	

106	20.175000000000	622.489584667208	1009.760637735359	431.987304537362	794.307607101753	1443.585598482332	257.943660058299	891.584070973508	1374.344107825571	422.216141854880	798.858332426672	1440.342878143200	593.413768966571	769.612360948273	1501.849212338405	411.802728384606	846.054369762470	950.137642698594	553.545703628999	843.374173486135	970.239247045751	278.855808352809	937.047918136125	786.459077298385	521.369702736968	903.564341628694	662.619124334543	593.529652482560	994.640955932854	628.836144661355	514.416380452460	1021.461008062824	520.124123134573	534.674471846704	871.884125041874	746.996793349854	313.309898272747	772.310052902402	638.811198131680	254.585084768479	843.809556158145	555.306101733258	322.577759399072	836.355447735864	489.215830059926	335.275353702095	813.638444117425	419.370549269092	328.171929809812	728.153467670401	301.257233125734	277.827610516215	779.320448533099	195.094132599103	357.390899813348	957.853897283786	436.511716676517	540.374899341527	847.482839558618	374.487101732195	601.345592478985	851.421339069272	266.223625037687	549.592642441603	664.144437385694	166.307106416473	523.364529102067	842.737897187935	146.494083433222	562.933805189677	735.559339880115	123.244118270722	596.652114310982	928.208683641667	50.542941513813	588.903899743745	652.268310560084	37.700559742166	403.937377282706	728.508023403385	34.520966593458	324.458271788818	810.173806301947	96.544692989075	352.025963123509	939.740473246533	46.680173149405	329.082346305070	848.199248315819	1101.703140844738	117.804809064564	1057.272149669569	944.000826524925	117.111355027536	716.270277870539	1099.023259768673	700.894084032709	735.135705007925	838.409733667014	712.878478164171	
107	20.187428571429	621.865869258998	1009.820451143689	431.106257342206	795.797848063069	1443.879018597026	258.501570543666	891.845510822786	1374.013726451496	423.199679951521	798.189790352844	1439.900381064217	593.919527401811	769.980738580715	1501.785985315439	412.326453914482	844.912702773162	950.393220762364	553.744722586301	843.056791536446	969.826740619228	279.087031899277	936.205091887803	787.045590945319	521.817123013858	902.647523954155	663.148148862487	594.250944839749	993.425772156296	629.323985952246	515.026728498553	1021.453088550599	522.883403430957	535.466576264779	869.563406237448	745.918180114015	313.998610240406	768.863607882326	638.708936921518	254.417653578713	838.852804398755	554.478542048718	322.811827845193	830.720885867712	488.587730845486	335.359685016415	807.723736089130	418.961323338754	328.255530317159	721.909361533198	301.177467033328	277.709417220403	772.380289543784	194.850589016445	357.507507899355	962.506840331969	437.478886649291	541.679811221373	856.915534050313	368.831670335534	603.477741684565	867.598824036972	260.955611862464	551.846866709511	687.393858418647	149.342643452144	526.429618070101	866.716701442999	140.820934609957	565.755051571811	761.399131358281	111.213079314844	599.885638990759	957.927516638536	50.646684673612	592.082487484753	644.774747600704	37.684428074802	403.919946721429	720.988275375822	34.517703625606	324.482023637705	802.690359217306	96.466439646906	352.102050537678	932.257341259154	46.533965400492	329.080552968301	850.544932608490	1102.705479588257	117.624502125971	1066.004398267667	953.939673030205	117.292500439874	706.489553810354	1101.472369737545	700.651256393659	715.821149921481	840.779207660183	715.119841591514	
108	20.199857142857	621.277685106271	1009.784468141942	430.274921325495	797.348828364273	1443.997457992359	259.155032203812	892.196171542986	1373.523860062700	424.255391839528	797.679577603028	1439.381889802307	594.500782369453	770.451403448262	1501.576064018109	412.964628141226	843.809909173771	950.473528109062	554.067408507965	842.714735503826	969.271327929784	279.448516620094	934.912529584530	786.932662815111	522.451354814304	900.808616145784	663.139506723677	595.161034655418	991.178945163655	628.989709204649	515.823094225994	1020.311377156927	525.104918849110	536.408035423743	867.430040737732	744.803153671807	314.753949454073	765.585230019200	638.553140235427	254.309019797359	834.086950531272	553.640236781410	323.099933936633	825.300552830348	487.926343105706	335.474595945781	801.973669511851	418.506535238905	328.374810723586	715.781380706967	301.089880804754	277.614046801161	765.497482724869	194.572874294958	357.641500453298	966.351796752316	438.206469197145	543.151622995753	866.236839776202	362.920499145951	605.796551447109	884.000586743751	255.953109217843	554.204592928305	712.053367485582	132.590727166851	529.477281452925	891.412044202246	135.794784677678	568.624820445778	788.429098437088	99.667169961078	603.116812770514	988.223647135641	51.952040645252	595.269256773523	637.294540577074	37.679524612654	403.897217902938	713.467689353188	34.517215631151	324.510245824212	795.213390692362	96.380063386844	352.191771764644	924.776668191514	46.372466120750	329.085560078785	852.607327242639	1103.432061775586	117.642025568702	1073.928663935088	963.704108288455	117.772842598240	697.136923489418	1104.094941643325	700.556058914928	697.883580755273	843.663110888718	717.050449407909	
109	20.212285714286	620.742545743911	1009.655911907020	429.492490021104	798.939188976424	1443.944680356976	259.904666948650	892.625901161066	1372.888429250193	425.384029055820	797.320891156491	1438.795982098897	595.162284436408	771.015642565699	1501.227948976116	413.714320879192	842.758016266455	950.383336834215	554.525812737275	842.414392154873	968.599375619524	279.940387778741	933.164267700395	786.114505215004	523.282283942333	898.089108991801	662.622752405917	596.275606683035	987.951573149173	627.885896564826	516.806465468988	1018.117787062572	526.809210874125	537.480365796013	865.522870769522	743.657115737463	315.581291512720	762.513846005082	638.341141313464	254.268237920743	829.563641840640	552.793083038300	323.446811209775	820.137578113179	487.223534464559	335.635992176205	796.428827138416	417.998916035588	328.538684855245	709.796323990704	300.999973875097	277.553306241742	758.683925363132	194.258072125018	357.795203774126	969.388975643823	438.763546502463	544.768056368813	875.367807849863	356.978519827065	608.238162431166	900.412192649304	251.470956534944	556.596414273580	737.797278720772	116.601514780061	532.391117802604	916.479002073960	131.669251501016	571.437334153782	816.265388241746	88.993237772777	606.200758416206	1018.603928938947	54.567217962955	598.304375555736	629.822886770479	37.691828639850	403.871162163640	705.946731676702	34.522562835774	324.540909365461	787.744715709014	96.286394667294	352.292312763880	917.296802500413	46.194711151120	329.096451822666	854.438068015285	1103.898977186768	117.847360538290	1081.047494617417	973.197890024354	118.542096256814	688.323512040010	1106.829231398025	700.601785875812	681.372568574887	846.871531657283	718.672292114677	
